<svg width="14" height="14" viewBox="0 0 14 14" fill="none" xmlns="http://www.w3.org/2000/svg">
<path fill-rule="evenodd" clip-rule="evenodd" d="M12.2663 0.0271558C12.0662 0.0673775 11.8455 0.165603 11.6856 0.285528C11.5988 0.350737 11.3431 0.59045 11.1175 0.818245L10.7074 1.23241L11.7397 2.26639L12.7721 3.30037L13.2108 2.86215C13.7011 2.37256 13.8128 2.22803 13.9115 1.9556C14.1057 1.41976 13.9755 0.842301 13.5685 0.434715C13.2202 0.0858169 12.7329 -0.066658 12.2663 0.0271558ZM7.74289 4.20089L5.4081 6.53947L5.18696 7.6463C5.03784 8.39276 4.97216 8.77788 4.98526 8.82914C5.0101 8.92627 5.0905 9.00671 5.18728 9.03126C5.28935 9.05718 7.37793 8.64162 7.4844 8.57422C7.52659 8.54753 8.59508 7.48878 9.85886 6.22148L12.1567 3.91728L11.131 2.88977C10.567 2.32466 10.0992 1.86228 10.0916 1.86228C10.0839 1.86228 9.02702 2.91465 7.74289 4.20089ZM1.42813 2.36839C0.813285 2.48122 0.300528 2.93308 0.0748703 3.56101L0.0108852 3.73911L0.00355394 8.08808C-0.00465279 12.9556 -0.0164705 12.6472 0.194333 13.0684C0.391869 13.4632 0.755838 13.7787 1.19131 13.9326L1.37867 13.9988L5.81573 13.9994L10.2528 14L10.4662 13.9325C11.0158 13.7585 11.4479 13.2986 11.6147 12.7099C11.6612 12.5457 11.6644 12.3673 11.6644 9.98392V7.43366L11.582 7.30003C11.4628 7.10706 11.2597 7.00273 11.0403 7.02191C10.8479 7.0387 10.6996 7.128 10.591 7.29233L10.5155 7.40651L10.5018 9.92923C10.4893 12.2355 10.4842 12.4592 10.4417 12.537C10.376 12.657 10.2198 12.7867 10.0988 12.8218C10.0259 12.843 8.75984 12.8493 5.76692 12.8436L1.53813 12.8355L1.43103 12.7606C1.37214 12.7195 1.29319 12.6402 1.25557 12.5846L1.18718 12.4834L1.17911 8.24823C1.17342 5.25084 1.17977 3.98293 1.20086 3.90988C1.23993 3.77472 1.37815 3.61967 1.51521 3.55731C1.61861 3.51027 1.76363 3.50739 4.05637 3.50682C5.89955 3.50635 6.51511 3.49805 6.60046 3.47251C6.75633 3.42588 6.92591 3.24973 6.97129 3.08737C7.04417 2.82667 6.93567 2.55336 6.70547 2.41785L6.57627 2.34176L4.10057 2.33702C2.15369 2.33332 1.58286 2.34001 1.42813 2.36839Z" fill="black"/>
</svg>
